<?xml version="1.0" encoding="utf-8"?>
<!-- Generator: Adobe Illustrator 16.0.0, SVG Export Plug-In . SVG Version: 6.00 Build 0)  -->
<!DOCTYPE svg PUBLIC "-//W3C//DTD SVG 1.1//EN" "http://www.w3.org/Graphics/SVG/1.1/DTD/svg11.dtd">
<svg version="1.1" id="Layer_1" xmlns="http://www.w3.org/2000/svg" xmlns:xlink="http://www.w3.org/1999/xlink" x="0px" y="0px"
	 width="100px" height="100px" viewBox="0 0 100 100" enable-background="new 0 0 100 100" xml:space="preserve">
<g>
	<path fill-rule="evenodd" clip-rule="evenodd" fill="#020202" d="M91.979,62.073c-6.433-1.713-14.132-3.723-21.811-5.813
		c-13.596-3.702-13.58-3.719-17.842,9.538c-1.097,3.413-2.505,6.743-3.371,10.21c-1.144,4.582-3.537,5.306-7.405,3.116
		C29.57,72.344,17.588,65.568,5.564,58.867c-2.093-1.167-4.143-2.521-2.778-5.011c1.451-2.646,3.908-1.167,5.736-0.151
		c9.765,5.427,19.581,10.78,29.136,16.561c4.463,2.7,6.934,3.149,8.305-2.907c1.227-5.417,3.615-10.561,5.068-15.939
		c1.079-3.997,3.218-5.062,7.006-4.043c11.929,3.208,23.867,6.378,35.83,9.458c1.76,0.452,2.86,0.924,2.792,3.029
		C96.579,62.379,94.897,62.043,91.979,62.073z"/>
	<path fill-rule="evenodd" clip-rule="evenodd" fill="#030303" d="M85.244,39.474c-12.254-3.508-24.474-6.521-36.321-10.609
		c-5.655-1.951-8.171-0.681-10.451,4.377c-2.039,4.522-5.053,8.596-7.389,12.999c-1.622,3.057-4.042,3.437-6.416,1.793
		c-4.917-3.406-9.521-7.261-14.288-10.887c-1.562-1.187-1.784-3.006-1.06-4.285c1.086-1.914,3.238-1.398,4.717-0.4
		c2.975,2.005,5.881,4.161,8.558,6.542c2.783,2.476,4.576,2.896,6.461-1.05c2.143-4.487,5.167-8.55,7.349-13.021
		c1.67-3.421,4.121-4.136,7.32-3.226c14.185,4.032,28.335,8.188,42.521,12.213c2.092,0.593,3.135,1.621,2.721,3.797
		C88.5,40.164,86.454,38.97,85.244,39.474z"/>
</g>
</svg>
