<?xml version="1.0" encoding="utf-8"?>
<!-- Generator: Adobe Illustrator 16.0.0, SVG Export Plug-In . SVG Version: 6.00 Build 0)  -->
<!DOCTYPE svg PUBLIC "-//W3C//DTD SVG 1.1//EN" "http://www.w3.org/Graphics/SVG/1.1/DTD/svg11.dtd">
<svg version="1.1" id="Layer_1" xmlns="http://www.w3.org/2000/svg" xmlns:xlink="http://www.w3.org/1999/xlink" x="0px" y="0px"
	 width="100px" height="100px" viewBox="0 0 100 100" enable-background="new 0 0 100 100" xml:space="preserve">
<g>
	<path fill-rule="evenodd" clip-rule="evenodd" fill="#101111" d="M20.056,43.411c0-8.793,0.011-17.586-0.007-26.379
		c-0.004-2.106-0.028-3.986,2.966-4.063c2.847-0.073,4.046,1.167,4.046,3.87c0,17.986-0.008,35.971,0.011,53.957
		c0.002,2.648-0.97,4.041-3.876,4.048c-3.413,0.008-3.155-2.188-3.149-4.453C20.069,61.396,20.055,52.403,20.056,43.411z"/>
	<path fill-rule="evenodd" clip-rule="evenodd" fill="#0F1010" d="M43.144,59.225c-0.002,7.376-0.039,14.751,0.019,22.127
		c0.02,2.543-0.529,4.246-3.606,4.158c-2.943-0.083-3.708-1.726-3.705-4.263c0.013-14.752,0.023-29.502-0.018-44.252
		c-0.008-2.674,0.906-3.951,3.825-4.013c3.19-0.067,3.531,1.625,3.51,4.117C43.104,44.474,43.146,51.85,43.144,59.225z"/>
	<path fill-rule="evenodd" clip-rule="evenodd" fill="#202121" d="M63.925,42.582c-0.002,5.797,0.032,11.595-0.018,17.391
		c-0.021,2.354,0.366,4.857-3.448,4.909c-3.468,0.046-3.951-1.846-3.95-4.523c0.008-11.794-0.002-23.588-0.002-35.382
		c0-2.617,0.398-4.746,3.862-4.719c3.664,0.029,3.535,2.493,3.548,4.934C63.948,30.988,63.927,36.785,63.925,42.582z"/>
	<path fill-rule="evenodd" clip-rule="evenodd" fill="#080909" d="M72.715,55.392c0.001-4.794,0.023-9.59-0.01-14.385
		c-0.017-2.424,0.29-4.235,3.493-4.292c3.431-0.06,3.92,1.726,3.898,4.507c-0.074,9.189-0.086,18.381,0.007,27.57
		c0.026,2.774-0.373,4.567-3.818,4.56c-3.668-0.008-3.598-2.251-3.58-4.773C72.737,64.184,72.715,59.787,72.715,55.392z"/>
</g>
</svg>
