<?xml version="1.0" encoding="utf-8"?>
<!-- Generator: Adobe Illustrator 16.0.0, SVG Export Plug-In . SVG Version: 6.00 Build 0)  -->
<!DOCTYPE svg PUBLIC "-//W3C//DTD SVG 1.1//EN" "http://www.w3.org/Graphics/SVG/1.1/DTD/svg11.dtd">
<svg version="1.1" id="Layer_1" xmlns="http://www.w3.org/2000/svg" xmlns:xlink="http://www.w3.org/1999/xlink" x="0px" y="0px"
	 width="100px" height="100px" viewBox="0 0 100 100" enable-background="new 0 0 100 100" xml:space="preserve">
<g>
	<path fill-rule="evenodd" clip-rule="evenodd" fill="#030303" d="M47.145,21.412c-0.907,11.776-1.666,21.703-2.443,31.628
		c-0.14,1.787-0.27,3.583-0.569,5.347c-0.233,1.377-0.618,2.892-2.564,2.556c-1.787-0.31-1.964-1.643-1.841-3.176
		c0.478-5.959,0.913-11.92,1.358-17.88c0.608-8.148,1.156-16.301,1.867-24.439c0.126-1.442-0.147-3.524,1.835-3.981
		c1.772-0.41,2.872,0.962,3.746,2.388c12.816,20.897,25.629,41.798,38.488,62.67c1.091,1.771,1.595,3.643-0.454,4.556
		c-2.346,1.045-3.472-1.182-4.499-2.854C73.101,63.618,64.16,48.992,55.2,34.379C52.837,30.526,50.432,26.7,47.145,21.412z"/>
	<path fill-rule="evenodd" clip-rule="evenodd" fill="#030303" d="M33.901,32.788c3.67,0.995,1.71,3.266,0.695,4.958
		C29.877,45.62,25.378,53.665,20.07,61.13c-3.285,4.621,0.93,8.537,8.638,13.881c6.799,4.714,7.459,5.739,10.989,5.989
		c4.637,0,11.112-6.346,16.75-10.127c2.821-1.892,5.622-3.814,8.438-5.713c1.51-1.019,3.131-1.226,4.197,0.411
		c0.891,1.369-0.034,2.823-1.135,3.585c-8.708,6.025-17.46,11.989-26.268,17.866c-2.212,1.476-4.299,0.086-6.084-1.145
		c-7.233-4.989-14.355-10.14-21.597-15.115c-2.138-1.469-3.142-3.02-1.666-5.43c6.355-10.374,12.736-20.732,19.084-31.11
		C31.969,33.317,32.532,32.59,33.901,32.788z"/>
</g>
</svg>
