<?xml version="1.0" encoding="utf-8"?>
<!-- Generator: Adobe Illustrator 16.0.0, SVG Export Plug-In . SVG Version: 6.00 Build 0)  -->
<!DOCTYPE svg PUBLIC "-//W3C//DTD SVG 1.1//EN" "http://www.w3.org/Graphics/SVG/1.1/DTD/svg11.dtd">
<svg version="1.1" id="Layer_1" xmlns="http://www.w3.org/2000/svg" xmlns:xlink="http://www.w3.org/1999/xlink" x="0px" y="0px"
	 width="100px" height="100px" viewBox="0 0 100 100" enable-background="new 0 0 100 100" xml:space="preserve">
<g id="KjiAIU_1_">
	<g>
		<g>
			<path fill="#FEFEFE" d="M83.389,16.207c3.428-0.739,2.182,2.088,2.185,3.621c0.056,22.126,0.038,44.253,0.038,66.379
				c-10,0-20,0-30,0c2.434-15.59,5.309-31.091,8.021-46.623c0.964-5.521,3.35-5.837,7.137-1.711
				c2.884,3.144,4.975,7.441,10.069,8.642c-0.287-3.854-2.924-5.353-4.615-7.441c-1.832-2.264-3.294-4.882-5.343-6.915
				c-1.964-1.949-3.479-5.721-6.55-4.619c-2.695,0.968-2.22,4.77-2.663,7.443c-2.55,15.413-5.247,30.797-7.705,46.229
				c-0.283,1.776-0.415,3.612-1.684,4.996c-11.048,0-22.1-0.177-33.141,0.109c-3.221,0.084-3.631-0.902-3.606-4.083
				c0.156-20.397,0.08-40.798,0.08-61.199c1.905-1.085,3.956-0.667,5.96-0.66c17.839,0.059,35.677,0.017,53.515,0.018
				C78.448,20.394,81.854,20.486,83.389,16.207z"/>
			<path fill-rule="evenodd" clip-rule="evenodd" fill="#040404" d="M52.278,86.207c-0.022-11.49,3.406-22.391,4.919-33.621
				c1.062-7.89,2.7-15.69,4.145-23.516c0.813-4.404,3.586-5.585,6.494-2.462c4.86,5.218,9.45,10.737,14.078,16.206
				c1.49,1.76,2.117,4.25,0.319,5.804c-1.364,1.178-3.454,0.693-4.949-1.09c-3.351-3.991-6.825-7.858-10.82-12.43
				c-2.31,6.899-2.686,13.589-3.939,20.029c-1.599,8.209-3.088,16.453-4.29,24.739c-0.366,2.521-1.484,4.36-2.623,6.341
				C54.5,86.207,53.39,86.207,52.278,86.207z"/>
			<path fill-rule="evenodd" clip-rule="evenodd" fill="#010101" d="M83.389,16.207c1.73,4.781,0.131,6.529-4.467,6.499
				c-19.206-0.128-38.412-0.063-57.617-0.044c-2.049,0.002-3.997-0.252-5.693-1.626c-0.841-4.131,0.633-4.998,4.445-4.952
				C41.165,16.341,62.277,16.207,83.389,16.207z"/>
			<path fill-rule="evenodd" clip-rule="evenodd" fill="#050505" d="M43.789,28.295c0.145,3.134-0.943,4.538-1.916,6
				c-5.078,7.636-10.229,15.217-15.183,22.949c-1.562,2.438-3.449,4.412-5.781,2.421c-1.967-1.68-0.758-4.384,0.591-6.425
				c5.484-8.302,10.994-16.583,16.456-24.903c1.067-1.626,2.34-2.49,4.211-2.126C43.949,26.559,43.767,28.085,43.789,28.295z"/>
			<path fill-rule="evenodd" clip-rule="evenodd" fill="#0B0B0B" d="M43.616,59.291c1.088-7.479,2.154-14.964,3.279-22.436
				c0.295-1.961,1.633-2.488,3.281-2.396c1.969,0.109,2.555,1.55,2.31,3.299c-1.097,7.874-2.255,15.74-3.506,23.589
				c-0.347,2.171-2.147,1.988-3.571,1.736C43.425,62.73,43.629,60.89,43.616,59.291z"/>
		</g>
	</g>
</g>
</svg>
